<?xml version="1.0" encoding="utf-8"?>
<svg viewBox="83.449 57.45 1875.958 574.375" xmlns="http://www.w3.org/2000/svg">
  <path class="logo" transform="matrix(1, 0, 0, 1, 1370, 58)" d="M 0 0 L 27 0 L 41 3 L 53 8 L 67 16 L 80 26 L 88 34 L 99 43 L 112 55 L 127 68 L 135 76 L 146 85 L 162 100 L 173 109 L 181 117 L 189 124 L 202 135 L 209 142 L 220 151 L 231 162 L 242 171 L 249 178 L 257 185 L 271 197 L 287 212 L 295 219 L 345 264 L 353 271 L 364 281 L 375 290 L 383 298 L 394 307 L 410 322 L 423 334 L 432 342 L 432 10 L 431 0 L 565 -1 L 592 -1 L 591 483 L 589 507 L 585 522 L 578 535 L 570 547 L 559 559 L 546 569 L 536.832 572.505 L 519 574 L 500 573 L 486 573 L 469 573 L 456 569 L 435 559 L 427 554 L 419 548 L 407 537 L 399 530 L 386 518 L 378 511 L 367 501 L 359 494 L 349 485 L 341 478 L 331 469 L 319 458 L 311 451 L 298 439 L 287 430 L 272 416 L 261 407 L 254 400 L 246 393 L 234 382 L 224 373 L 213 363 L 205 356 L 194 346 L 183 337 L 174 328 L 163 319 L 151 307 L 140 298 L 127 286 L 116 277 L 90 253 L 82 246 L 77 242 L 77 573 L 33 574 L -449 574 L -475 573 L -504 570 L -542 564 L -566 558 L -572 555 L -574 552 L -568 533 L -563 509 L -561 489 L -560 437 L -561 396 L -557 397 L -542 407 L -526 414 L -505 421 L -480 426 L -461 428 L -424 429 L -81 430 L -81 95 L -79 75 L -76 63 L -69 47 L -61 35 L -53 25 L -44 17 L -29 8 L -11 2 L 0 0 Z" style="fill: rgb(3, 3, 3);"/>
  <path class="logo" d="M 166.7 58 L 192.732 58 L 206.749 60.953 L 218.763 65.875 L 232.78 73.75 L 241.791 80.641 L 254.807 91.47 L 269.825 105.252 L 281.839 116.08 L 292.853 124.94 L 299.861 131.831 L 307.871 138.722 L 337.907 165.3 L 345.917 172.191 L 356.93 182.036 L 364.94 188.927 L 375.953 198.771 L 386.967 207.631 L 403.987 223.381 L 415.001 232.24 L 432.021 247.991 L 440.031 254.882 L 453.047 266.695 L 468.065 279.493 L 482.082 292.29 L 490.092 299.181 L 500.104 308.04 L 514.121 319.853 L 529.139 333.635 L 540.152 342.495 L 550.164 352.339 L 561.178 361.199 L 575.195 374.98 L 580.201 378.918 L 583.205 379.902 L 582.203 377.933 L 582.203 351.355 L 584.206 316.9 L 587.209 294.259 L 592.215 271.617 L 597.221 255.866 L 604.23 239.131 L 617.246 213.537 L 625.255 201.724 L 635.268 187.943 L 642.276 179.083 L 651.287 169.238 L 658.295 161.363 L 663.302 156.441 L 674.315 146.597 L 687.331 136.753 L 702.349 125.924 L 715.365 118.049 L 738.392 105.252 L 756.414 97.376 L 782.446 87.532 L 810.48 75.657 L 836.51 69.735 L 872.555 61.813 L 900.589 58.844 L 977.682 57.86 L 1240 57.86 L 1238.999 70.797 L 1229.988 89.501 L 1223.981 108.205 L 1220.977 125.924 L 1218.975 144.628 L 1217.973 161.363 L 1216.98 191.591 L 1216.956 191.607 L 912.591 200.591 L 890.577 205.537 L 866.548 215.459 L 845.522 225.35 L 829.503 233.225 L 815.486 242.084 L 804.473 250.944 L 787.452 267.68 L 781.445 275.555 L 770.431 294.259 L 764.424 308.04 L 760.419 322.806 L 758.417 335.603 L 757.416 358.245 L 757.416 520.673 L 756.414 551.19 L 753.411 567.924 L 746.402 583.676 L 736.39 599.426 L 727.379 610.254 L 717.367 617.145 L 702.349 625.02 L 682.325 630.927 L 666.305 632.896 L 654.291 632.896 L 640.274 630.927 L 625.255 626.005 L 609.236 617.145 L 596.22 607.301 L 582.203 594.504 L 574.194 587.613 L 564.181 578.753 L 552.167 567.924 L 544.157 561.034 L 537.149 554.143 L 526.135 545.283 L 511.117 531.502 L 500.104 522.642 L 491.093 513.782 L 480.08 504.923 L 472.07 497.047 L 464.06 490.156 L 450.043 478.343 L 436.026 465.546 L 428.017 458.655 L 416.002 447.827 L 404.989 438.967 L 397.98 432.076 L 389.97 425.186 L 379.958 416.325 L 371.949 409.434 L 359.934 398.606 L 351.924 391.715 L 338.909 379.902 L 328.896 371.043 L 320.887 364.152 L 309.873 354.308 L 301.864 347.417 L 291.852 338.557 L 278.836 327.728 L 254.807 306.071 L 242.792 297.212 L 242.792 621.083 L 243.791 631.882 L 175.076 632.17 L 82.761 632.254 L 83.599 612.223 L 83.599 161.363 L 85.602 136.753 L 89.607 121.002 L 96.615 104.268 L 107.628 87.532 L 117.641 77.688 L 132.659 67.844 L 146.676 61.938 L 166.7 58 Z" style="fill: rgb(3, 3, 3);" transform="matrix(1, 0, 0, 1, 7.105427357601002e-15, 0)"/>
  <path class="logo"  d="M 686 57 L 700 57 L 700 59 L 679 72 L 665 82 L 652 92 L 641 101 L 632 110 L 624 117 L 608 133 L 597 147 L 588 160 L 584 162 L 584 58 L 686 57 Z" style="fill: rgb(3, 3, 3);" transform="matrix(1, 0, 0, 1, 7.105427357601002e-15, 0)"/>
</svg>